{"title":"The.Awakening.2011.DVDRip.XviD.AC3-5.1.Une-CM8","uid":7079679,"size":1259224362,"categoryP":"video","categoryS":"movies","magnet":"?xt=urn:btih:8a3164a4030f52fdb54959c9b4ede0db11c0eacf&amp;dn=The.Awakening.2011.DVDRip.XviD.AC3-5.1.Une-CM8&amp;tr=udp%3A%2F%2Ftracker.openbittorrent.com%3A80&amp;tr=udp%3A%2F%2Fopen.demonii.com%3A1337&amp;tr=udp%3A%2F%2Ftracker.coppersurfer.tk%3A6969&amp;tr=udp%3A%2F%2Fexodus.desync.com%3A6969","seeders":0,"leechers":1,"uploader":"HeroMaster","files":-1,"time":1330981281,"description":"The.Awakening.2011.DVDRip.XviD.AC3-5.1.Une-CM8\n\nSource: DVDR ripperschoice Thx m8\n &lt;a href=&quot;\nhttp://www.imdb.com/title/tt1687901/&quot; rel=&quot;nofollow&quot; target=&quot;_NEW&quot;&gt;\nhttp://www.imdb.com/title/tt1687901/&lt;/a&gt;\n\n\nGeneral\nComplete name                    : The.Awakening.2011.DVDRip.XviD.AC3-5.1.Une-CM8.avi\nFormat                           : AVI\nFormat/Info                      : Audio Video Interleave\nFile size                        : 1.16 GiB\nDuration                         : 1h 42mn\nOverall bit rate                 : 1 630 Kbps\nWriting application              : VirtualDubMod 1.5.4.1 (build 2178/release)\nWriting library                  : VirtualDubMod build 2178/release\n\nVideo\nID                               : 0\nFormat                           : MPEG-4 Visual\nFormat profile                   : Advanced Simple@L5\nFormat settings, BVOP            : No\nFormat settings, QPel            : No\nFormat settings, GMC             : No warppoints\nFormat settings, Matrix          : Custom\nCodec ID                         : XVID\nCodec ID/Hint                    : XviD\nDuration                         : 1h 42mn\nBit rate                         : 1 175 Kbps\nWidth                            : 720 pixels\nHeight                           : 304 pixels\nDisplay aspect ratio             : 2.35:1\nFrame rate                       : 25.000 fps\nColor space                      : YUV\nChroma subsampling               : 4:2:0\nBit depth                        : 8 bits\nScan type                        : Progressive\nCompression mode                 : Lossy\nBits/(Pixel*Frame)               : 0.215\nStream size                      : 859 MiB (72%)\nWriting library                  : XviD 1.2.1 (UTC 2008-12-04)\n\nAudio\nID                               : 1\nFormat                           : AC-3\nFormat/Info                      : Audio Coding 3\nMode extension                   : CM (complete main)\nCodec ID                         : 2000\nDuration                         : 1h 42mn\nBit rate mode                    : Constant\nBit rate                         : 448 Kbps\nChannel(s)                       : 6 channels\nChannel positions                : Front: L C R, Side: L R, LFE\nSampling rate                    : 48.0 KHz\nBit depth                        : 16 bits\nCompression mode                 : Lossy\nStream size                      : 328 MiB (27%)\nAlignment                        : Split accross interleaves\nInterleave, duration             : 96 ms (2.40 video frames)\nInterleave, preload duration     : 96 ms\n\n\n1921 England is overwhelmed by the loss and grief of World War I. Hoax exposer Florence Cathcart visits \na boarding school to explain sightings of a child ghost. Everything she knew in unravels as the \n'missing' begin to show themselves. \n\n\nRebecca Hall\t... Florence Cathcart\nDominic West\t... Robert Mallory\nImelda Staunton\t... Maud Hill\nLucy Cohu\t... Constance Strickland\nJohn Shrapnel\t... Reverend Hugh Purslow\n\n\nPoster:\n\n &lt;a href=&quot;\nhttp://i.imgur.com/pltPN.jpg&quot; rel=&quot;nofollow&quot; target=&quot;_NEW&quot;&gt;\nhttp://i.imgur.com/pltPN.jpg&lt;/a&gt;\n\n\nScreenshots:\n\n &lt;a href=&quot;\nhttp://i.imgur.com/jDr1F.jpg&quot; rel=&quot;nofollow&quot; target=&quot;_NEW&quot;&gt;\nhttp://i.imgur.com/jDr1F.jpg&lt;/a&gt;\n\n\nENJOY!","torrent":{"xt":"urn:btih:8a3164a4030f52fdb54959c9b4ede0db11c0eacf","amp;dn":"The.Awakening.2011.DVDRip.XviD.AC3-5.1.Une-CM8","amp;tr":["udp%3A%2F%2Ftracker.openbittorrent.com%3A80","udp%3A%2F%2Fopen.demonii.com%3A1337","udp%3A%2F%2Ftracker.coppersurfer.tk%3A6969","udp%3A%2F%2Fexodus.desync.com%3A6969"],"infoHash":"8a3164a4030f52fdb54959c9b4ede0db11c0eacf","infoHashBuffer":{"type":"Buffer","data":[138,49,100,164,3,15,82,253,181,73,89,201,180,237,224,219,17,192,234,207]},"announce":[],"urlList":[]}}